# xmcd
#
# Track frame offsets: 
#        180
#        16315
#        29337
#        44550
#        55550
#        67000
#        78077
#        93652
#        105250
#
# Disc length: 1581 seconds
#
# Revision: 0
# Processed by: cddbd v1.5.2PL0 Copyright (c) Steve Scherf et al.
# Submitted via: ExactAudioCopy v0.99pb5
#
DISCID=67062b09
DTITLE=Melba Montgomery - Do You Know Where Your Man Is
DYEAR=1992
DGENRE=Country
TTITLE0=Do You Know Where Your Man Is
TTITLE1=We Must Be Crazy with Charlie Louvin
TTITLE2=It All Comes With Goodbye
TTITLE3=Your Heart Turned Left (And I Was On The Right)
TTITLE4=Are You Sincere
TTITLE5=Heartaches By The Number
TTITLE6=Goin' Quietly Crazy
TTITLE7=You're On My Heart Again
TTITLE8=You Got Me Where I Wanna Be
EXTD=
EXTT0=
EXTT1=
EXTT2=
EXTT3=
EXTT4=
EXTT5=
EXTT6=
EXTT7=
EXTT8=
PLAYORDER=
